<svg xmlns="http://www.w3.org/2000/svg" viewBox="0 0 900 1200" width="900" height="1200">
  <defs>
    <linearGradient id="poster" x1="0" y1="0" x2="0" y2="1">
      <stop offset="0" stop-color="#123527"/>
      <stop offset="0.5" stop-color="#1b6b46"/>
      <stop offset="1" stop-color="#0c2a20"/>
    </linearGradient>
    <linearGradient id="tag" x1="0" y1="0" x2="1" y2="1">
      <stop offset="0" stop-color="#ffcc4d"/>
      <stop offset="1" stop-color="#ff8a34"/>
    </linearGradient>
  </defs>
  <rect width="900" height="1200" rx="70" fill="url(#poster)"/>
  <rect x="55" y="55" width="790" height="1090" rx="52" fill="none" stroke="#ffffff" stroke-opacity="0.28" stroke-width="7"/>
  <text x="450" y="155" text-anchor="middle" font-family="Arial, sans-serif" font-size="88" font-weight="900" fill="#ffcc4d">PREMIUM</text>
  <text x="450" y="245" text-anchor="middle" font-family="Arial, sans-serif" font-size="84" font-weight="900" fill="#ffffff">MARKET</text>
  <text x="450" y="337" text-anchor="middle" font-family="Arial, sans-serif" font-size="102" font-weight="900" fill="#ff8a34">SALE</text>
  <g transform="translate(450 520)">
    <circle cx="0" cy="0" r="165" fill="url(#tag)"/>
    <text x="0" y="-35" text-anchor="middle" font-family="Arial, sans-serif" font-size="76" font-weight="900" fill="#17342a">UP TO</text>
    <text x="0" y="70" text-anchor="middle" font-family="Arial, sans-serif" font-size="150" font-weight="900" fill="#17342a">50%</text>
    <text x="0" y="132" text-anchor="middle" font-family="Arial, sans-serif" font-size="48" font-weight="900" fill="#17342a">OFF</text>
  </g>
  <g transform="translate(140 805)">
    <rect x="0" y="0" width="620" height="210" rx="42" fill="#ffffff" opacity="0.96"/>
    <circle cx="115" cy="105" r="64" fill="#ff3434"/><path d="M95 44 C130 8 179 34 148 78" fill="#23b36c"/>
    <circle cx="260" cy="105" r="66" fill="#ffb13b"/><path d="M248 40 C285 5 330 38 295 78" fill="#23b36c"/>
    <circle cx="420" cy="84" r="55" fill="#7b4cd9"/><circle cx="475" cy="120" r="55" fill="#7b4cd9"/><circle cx="375" cy="132" r="55" fill="#7b4cd9"/>
  </g>
  <text x="450" y="1085" text-anchor="middle" font-family="Arial, sans-serif" font-size="52" font-weight="900" fill="#ffffff">BIG DEALS DAILY</text>
</svg>
