<svg xmlns="http://www.w3.org/2000/svg" viewBox="0 0 1600 700" width="1600" height="700">
  <defs>
    <linearGradient id="bg" x1="0" y1="0" x2="1" y2="1">
      <stop offset="0" stop-color="#eafff3"/>
      <stop offset="0.55" stop-color="#ffffff"/>
      <stop offset="1" stop-color="#c8f8df"/>
    </linearGradient>
    <radialGradient id="sun" cx="80%" cy="12%" r="46%">
      <stop offset="0" stop-color="#ffffff" stop-opacity="0.95"/>
      <stop offset="1" stop-color="#ffffff" stop-opacity="0"/>
    </radialGradient>
  </defs>
  <rect width="1600" height="700" fill="url(#bg)"/>
  <rect width="1600" height="700" fill="url(#sun)"/>
  <path d="M0 650 C250 520 380 640 620 490 C880 325 950 105 1210 110 C1370 112 1480 190 1600 135 L1600 700 L0 700 Z" fill="#22b573" opacity="0.16"/>
  <path d="M-50 170 C180 85 250 220 430 130 C550 70 700 50 790 110 C940 215 890 360 1110 330 C1300 304 1410 245 1650 310" fill="none" stroke="#22b573" stroke-width="28" opacity="0.10"/>
  <g opacity="0.88">
    <circle cx="1320" cy="520" r="76" fill="#ff8a34" opacity="0.16"/>
    <circle cx="1455" cy="575" r="120" fill="#ff8a34" opacity="0.12"/>
    <circle cx="105" cy="88" r="95" fill="#ff8a34" opacity="0.12"/>
  </g>
  <g transform="translate(1175 115)">
    <rect x="0" y="0" width="320" height="72" rx="36" fill="#17342a" opacity="0.9"/>
    <text x="160" y="46" text-anchor="middle" font-family="Arial, sans-serif" font-size="30" font-weight="800" fill="#ffffff">FRESH SALE</text>
  </g>
  <g transform="translate(1210 230)" opacity="0.95">
    <circle cx="0" cy="0" r="34" fill="#ff3434"/><path d="M-8 -31 C16 -50 39 -25 18 -6" fill="#1aa462"/>
    <circle cx="95" cy="28" r="36" fill="#ffb13b"/><path d="M82 -7 C102 -35 135 -10 116 13" fill="#1aa462"/>
    <circle cx="190" cy="2" r="34" fill="#7b4cd9"/><circle cx="220" cy="30" r="34" fill="#7b4cd9"/><circle cx="166" cy="36" r="34" fill="#7b4cd9"/>
  </g>
</svg>
